<svg xmlns="http://www.w3.org/2000/svg" width="29.239" height="29.239" viewBox="0 0 29.239 29.239"><defs><style>.a{fill:#433f20;}</style></defs><g transform="translate(-2.5 -2.5)"><path class="a" d="M12.6,14.714a.731.731,0,0,0-1.034,0l-4.6,4.6V15.231a.731.731,0,1,0-1.462,0v5.848a.712.712,0,0,0,.057.279.731.731,0,0,0,.4.4.753.753,0,0,0,.278.056h5.848a.731.731,0,1,0,0-1.462H8l4.6-4.6A.732.732,0,0,0,12.6,14.714Z" transform="translate(1.386 5.543)"/><path class="a" d="M21.358,5.556a.767.767,0,0,0-.279-.056H15.231a.731.731,0,0,0,0,1.462h4.083l-4.6,4.6a.731.731,0,0,0,0,1.034.724.724,0,0,0,.516.215.734.734,0,0,0,.518-.213l4.6-4.6v4.083a.731.731,0,0,0,1.462,0V6.231a.712.712,0,0,0-.057-.279A.733.733,0,0,0,21.358,5.556Z" transform="translate(5.543 1.386)"/><path class="a" d="M28.084,2.5H6.155A3.659,3.659,0,0,0,2.5,6.155V28.084a3.659,3.659,0,0,0,3.655,3.655H28.084a3.659,3.659,0,0,0,3.655-3.655V6.155A3.659,3.659,0,0,0,28.084,2.5Zm2.193,25.584a2.2,2.2,0,0,1-2.193,2.193H6.155a2.2,2.2,0,0,1-2.193-2.193V6.155A2.2,2.2,0,0,1,6.155,3.962H28.084a2.2,2.2,0,0,1,2.193,2.193Z" transform="translate(0 0)"/></g></svg>