<svg xmlns="http://www.w3.org/2000/svg" width="37" height="33.319" viewBox="0 0 37 33.319"><defs><style>.a{fill:#433f20;}</style></defs><g transform="translate(-2.894 -7.583)"><path class="a" d="M35.734,54.754,30.778,51.5a.589.589,0,1,0-.647.985l4.1,2.692-17.182,6.1L4.791,53.168l7.006-2.55a.589.589,0,0,0-.4-1.107L3.28,52.464a.587.587,0,0,0-.359.727v3.5a.583.583,0,0,0,.036.195.587.587,0,0,0,.263.479l13.421,8.879a.578.578,0,0,0,.652-.006l18.486-6.565a.954.954,0,0,0,.437-.724V55.333A.589.589,0,0,0,35.734,54.754ZM4.1,54.123l12.278,8.123v2.411L4.1,56.534Zm13.456,8.222,17.483-6.209v2.549L17.555,64.895Z" transform="translate(0 -25.441)"/><path class="a" d="M45.581,17.052a.588.588,0,0,0-.481-.578l-13.287-8.8c-.011-.007-.022-.011-.033-.017a.561.561,0,0,0-.055-.029c-.018-.008-.036-.014-.054-.02a.509.509,0,0,0-.053-.015c-.02,0-.039-.007-.059-.009s-.035,0-.053,0-.04,0-.061,0l-.053.005a.563.563,0,0,0-.062.015c-.012,0-.024,0-.037.009L12.651,14.176a.588.588,0,0,0-.364.734v3.5a.574.574,0,0,0,.034.19.589.589,0,0,0,.264.483L26,27.962a.577.577,0,0,0,.653-.007l18.487-6.562a.962.962,0,0,0,.439-.725ZM31.407,8.823,43.6,16.892l-17.189,6.1-12.239-8.1ZM13.465,15.837l12.274,8.125v2.411L13.465,18.249Zm13.452,8.224L44.4,17.856V20.4L26.917,26.611Z" transform="translate(-5.687)"/></g></svg>