<svg xmlns="http://www.w3.org/2000/svg" width="31" height="31" viewBox="0 0 31 31"><defs><style>.a,.c{fill:none;}.a{stroke:#ba8b41;}.b{stroke:none;}</style></defs><g transform="translate(-1326 -10626)"><g class="a" transform="translate(1326 10626)"><circle class="b" cx="15.5" cy="15.5" r="15.5"/><circle class="c" cx="15.5" cy="15.5" r="15"/></g><path class="a" d="M14.265,13.424C13.2,14.487,13.2,15.55,12.139,15.55s-2.126-1.063-3.189-2.126S6.823,11.3,6.823,10.235,7.886,9.172,8.949,8.109,6.823,3.856,5.76,3.856,2.571,7.045,2.571,7.045c0,2.126,2.184,6.437,4.253,8.505S13.2,19.8,15.328,19.8c0,0,3.189-2.126,3.189-3.189s-3.189-4.253-4.253-3.189Z" transform="translate(1330.956 10629.67)"/></g></svg>