<svg xmlns="http://www.w3.org/2000/svg" xmlns:xlink="http://www.w3.org/1999/xlink" width="71.996" height="65.033" viewBox="0 0 71.996 65.033"><defs><style>.a{fill:#ba8b41;}.b{clip-path:url(#a);}</style><clipPath id="a"><rect class="a" width="71.996" height="65.033"/></clipPath></defs><g class="b"><path class="a" d="M.708,65.033,0,64.089q12.982-9.56,16.878-19.179t3.9-16.347q0-4.6-2.715-4.6a10.731,10.731,0,0,0-2.124.472,10.86,10.86,0,0,1-2.951.472,12.667,12.667,0,0,1-8.97-3.541,11.235,11.235,0,0,1-3.777-8.5,12.824,12.824,0,0,1,3.6-8.97A12.612,12.612,0,0,1,13.574,0Q20.89,0,26.261,6.255t5.37,17.468a38.269,38.269,0,0,1-6.845,22.366Q17.939,55.946.708,65.033m40.365,0-.944-.944A48.8,48.8,0,0,0,55.709,47.271Q60.9,37.651,60.9,28.562q0-4.6-2.478-4.6a10.732,10.732,0,0,0-2.124.472,10.865,10.865,0,0,1-2.951.472,12.668,12.668,0,0,1-8.97-3.541,11.237,11.237,0,0,1-3.777-8.5A12.824,12.824,0,0,1,44.2,3.9,12.61,12.61,0,0,1,53.938,0q7.2,0,12.629,6.2T72,23.723a38.269,38.269,0,0,1-6.845,22.366Q58.3,55.946,41.073,65.033" transform="translate(0 0)"/></g></svg>