<svg xmlns="http://www.w3.org/2000/svg" xmlns:xlink="http://www.w3.org/1999/xlink" width="18.222" height="16.92" viewBox="0 0 18.222 16.92"><defs><style>.a{fill:url(#a);}</style><linearGradient id="a" x1="0.929" x2="0.224" y2="1" gradientUnits="objectBoundingBox"><stop offset="0" stop-color="#ffed00"/><stop offset="1" stop-color="#e1b400"/></linearGradient></defs><path class="a" d="M19.78,9.232H13.8L11.979,3.806a.659.659,0,0,0-1.236,0L8.925,9.232H2.9a.653.653,0,0,0-.651.651.478.478,0,0,0,.012.11.625.625,0,0,0,.273.46l4.917,3.465L5.565,19.4a.653.653,0,0,0,.224.732.629.629,0,0,0,.366.159.8.8,0,0,0,.407-.146l4.8-3.421,4.8,3.421a.762.762,0,0,0,.407.146.584.584,0,0,0,.362-.159.645.645,0,0,0,.224-.732l-1.887-5.487,4.877-3.5.118-.1a.682.682,0,0,0,.212-.435A.689.689,0,0,0,19.78,9.232Z" transform="translate(-2.25 -3.375)"/></svg>