<svg xmlns="http://www.w3.org/2000/svg" width="46.137" height="46.137" viewBox="0 0 46.137 46.137"><defs><style>.a{fill:#fbbd00;}.b{fill:#0f9d58;}.c{fill:#31aa52;}.d{fill:#3c79e6;}.e{fill:#cf2d48;}.f{fill:#eb4132;}</style></defs><path class="a" d="M10.813,114.253a12.18,12.18,0,0,1,1.724-6.261v-7.777H4.76a23.08,23.08,0,0,0,0,28.076h7.777v-7.777A12.18,12.18,0,0,1,10.813,114.253Z" transform="translate(0 -91.185)"/><path class="b" d="M201.407,374.677,196,380.083l5.407,5.407a22.893,22.893,0,0,0,14.038-4.76v-7.769h-7.769A12.253,12.253,0,0,1,201.407,374.677Z" transform="translate(-178.338 -339.353)"/><path class="c" d="M60.6,325.477l-7.777,7.777a23.435,23.435,0,0,0,2,2.274,22.917,22.917,0,0,0,16.312,6.757V331.471A12.26,12.26,0,0,1,60.6,325.477Z" transform="translate(-48.063 -296.148)"/><path class="d" d="M279.068,202.611a23.266,23.266,0,0,0-.378-4.179l-.2-1.108H256v10.813h10.944a12.2,12.2,0,0,1-4.675,5.014l7.769,7.769a23.429,23.429,0,0,0,2.274-2A22.918,22.918,0,0,0,279.068,202.611Z" transform="translate(-232.932 -179.543)"/><path class="e" d="M210.072,14.4l.956.956,7.646-7.646-.956-.956A22.917,22.917,0,0,0,201.407,0L196,5.407l5.407,5.407A12.175,12.175,0,0,1,210.072,14.4Z" transform="translate(-178.338 0)"/><path class="f" d="M71.13,10.813V0A22.918,22.918,0,0,0,54.819,6.756a23.415,23.415,0,0,0-2,2.274L60.6,16.808A12.26,12.26,0,0,1,71.13,10.813Z" transform="translate(-48.062 0)"/></svg>